<?xml version="1.0" encoding="utf-8"?>
<!-- Generator: Adobe Illustrator 17.0.2, SVG Export Plug-In . SVG Version: 6.00 Build 0)  -->
<!DOCTYPE svg PUBLIC "-//W3C//DTD SVG 1.1//EN" "http://www.w3.org/Graphics/SVG/1.1/DTD/svg11.dtd">
<svg version="1.1" id="Layer_1" xmlns="http://www.w3.org/2000/svg" xmlns:xlink="http://www.w3.org/1999/xlink" x="0px" y="0px"
	 width="800px" height="600px" viewBox="0 0 800 600" enable-background="new 0 0 800 600" xml:space="preserve">
<g>
	<path d="M289.623,340.441l0.089-5.61l-0.089-2.325l-0.586-1.729l-0.636-0.631l-0.723-0.089l-0.838,0.633l-0.218,1.782l-1.808,0.166
		l-3.04-2.875l-2.785-1.897l-1.182-1.485l-0.213-1.895l-0.544-0.983c1.892,8.217,4.577,16.123,7.983,23.646l0.581-2.572
		L289.623,340.441z"/>
	<path d="M279.246,304.897l-4.974,0.828c0.234,2.783,0.528,5.547,0.941,8.272l4.033-7.079V304.897z"/>
	<path d="M339.78,393.562l4.357-2.751l5.279-2.015l0.967-4.273l1.95-6.333l0.037-4.32l-0.799-3.663l5.952-8.196l-1.062-6.701
		l-1.981-0.042l-4.945-2.961l-3.461-0.384l-4.517-1.855l-1.605-0.928l-1.435-1.692l-1.311,0.3l-0.594,1.855l-1.303,1.146
		l-1.947,0.081v-0.72v-0.547l0.93-0.047l1.014-0.378l0.499-1.014l-0.079-0.754l-0.168-0.678l-1.398-0.131l-0.804,0.465l-2.149,1.143
		v0.886l-0.975-0.045l-0.079-0.799l0.967-1.398l0.967-1.477l0.649-2.236l-1.02-3.085l-1.779-2.189l-2.023-2.157l-5.689-1.222
		l-2.407-2.657l-1.69-1.39l-2.199-2.157l-1.309-2.189l-0.715-0.26l-1.398,0.21l-1.855,0.759l-2.956-0.552l-3.842-3.164l-1.309-0.166
		l-1.056,2.276v3.169l-1.398,0.507l-0.97-0.893l0.129-1.6l0.586-0.675l0.258-1.261l1.017-0.77l0.079-1.09l-0.841-0.255l-1.768,1.261
		l-2.533,1.437l-2.289,0.678l-1.6,4.388h-1.429l-0.087-0.589l-0.93-1.185l-1.182-0.502l-1.356,0.759l-1.605,0.675l-1.682-1.014
		l-0.841-1.603l-1.445-0.673v-3.298l0.935-6.926l-7.063-0.158c0.436,2.683,0.972,5.332,1.577,7.959l0.544,0.983l0.213,1.895
		l1.185,1.485l2.785,1.897l3.04,2.875l1.808-0.166l0.218-1.782l0.838-0.633l0.723,0.089l0.636,0.631l0.586,1.732l0.089,2.325
		l-0.089,5.61l-4.007,4.136l-0.581,2.572c11.02,24.371,29.509,44.628,52.561,57.869l1.556-4.717L339.78,393.562z"/>
	<polygon points="341.556,252.294 342.397,250.01 342.142,249.164 340.881,249.587 335.31,253.555 335.31,254.398 335.985,256.343 
		338.516,256.343 340.129,257.27 342.315,258.456 342.738,256.085 342.397,253.387 	"/>
	<polygon points="360.47,194.869 364.603,192.252 364.448,191.319 363.255,191.243 359.54,191.492 356.41,191.492 353.459,191.492 
		351.528,190.226 347.557,190.226 344.252,191.319 341.138,191.997 341.138,193.098 343.159,193.434 347.216,193.014 
		350.177,193.521 350.075,194.367 346.706,195.463 342.828,197.066 340.539,199.094 340.715,200.279 341.987,201.711 
		345.106,201.454 347.216,201.207 351.78,196.559 356.258,195.035 	"/>
	<polygon points="322.984,223.324 322.984,221.469 322.135,220.875 320.443,220.875 317.318,222.903 317.318,223.831 
		318.419,224.932 319.436,225.1 319.681,224.341 320.529,223.915 321.888,224.173 322.642,225.526 323.746,225.352 323.648,224.173 
			"/>
	<path d="M315.965,203.146l1.527-1.776l-0.636-1.671c-1.474,1.298-2.911,2.628-4.325,3.991l1.167-0.034L315.965,203.146z"/>
	<path d="M305.586,213.362l1.603,0.42l1.185-1.012l1.766-0.252l0.512-0.426l-0.336-0.93l-0.505-0.759l1.269-1.18v-1.269
		l-2.092-0.699c-1.684,1.761-3.321,3.571-4.908,5.426h0.158L305.586,213.362z"/>
	<polygon points="314.701,206.696 314.701,208.554 316.057,209.899 318.419,209.981 319.936,208.467 320.787,206.864 
		321.126,205.511 317.82,204.833 	"/>
	<polygon points="327.874,205.511 325.096,205.676 323.401,206.189 321.714,207.54 321.888,209.056 323.152,209.145 
		325.259,208.125 327.874,206.78 	"/>
	<polygon points="323.238,204.158 325.351,202.72 325.427,201.627 324.41,200.784 323.152,200.442 322.048,200.863 321.791,201.711 
		322.224,204.326 	"/>
	<polygon points="333.539,205.001 340.794,205.001 340.129,203.314 333.032,203.233 330.924,200.524 328.47,201.033 
		329.487,203.903 	"/>
	<polygon points="344.097,216.153 345.193,215.052 345.524,213.699 343.921,211.754 340.97,210.149 339.622,208.554 
		335.985,209.226 335.142,208.041 335.475,207.277 335.221,206.523 333.707,206.439 330.924,206.354 326.358,209.479 
		326.697,211.754 329.647,212.687 333.363,213.273 337.843,213.783 338.605,215.052 337.168,216.403 332.603,221.048 
		330.16,221.048 329.064,221.048 326.954,223.156 327.792,223.999 332.094,223.999 335.733,227.549 337.333,228.81 338.271,228.477 
		340.715,223.831 340.881,221.211 341.388,221.048 342.397,222.822 343.745,223.581 348.312,220.875 348.564,219.608 
		344.097,216.823 	"/>
	<polygon points="298.744,307.934 298.744,306.92 291.57,301.938 285.156,301.68 283.38,302.708 283.38,303.378 289.965,303.459 
		291.236,305.149 292.915,306.415 293.846,307.093 293.349,308.355 298.489,308.355 	"/>
	<polygon points="291.236,311.482 292.156,311.986 293.846,311.986 294.014,310.467 291.315,310.554 	"/>
	<polygon points="303.397,308.271 300.943,308.699 299.758,308.864 300.094,310.383 297.472,310.467 297.319,310.804 
		297.396,311.397 299.674,311.482 301.616,311.818 302.204,312.075 303.907,311.224 307.11,310.896 307.11,309.963 305.331,309.789 
			"/>
	<polygon points="309.633,310.98 308.792,311.647 309.633,312.241 311.919,311.902 311.246,310.896 	"/>
	<polygon points="315.634,313.844 315.713,314.18 316.475,316.13 317.747,315.783 317.82,314.693 317.155,314.099 	"/>
	<polygon points="316.307,316.8 316.307,318.408 316.651,319.669 317.668,319.843 317.579,316.8 	"/>
	<polygon points="393.909,218.087 394.414,216.487 393.068,216.318 391.035,215.475 391.035,214.287 391.715,214.287 
		392.637,214.968 394.338,214.8 394.338,213.948 392.735,212.519 392.637,211.082 394.083,210.406 394.75,211.082 396.195,211.082 
		397.625,209.652 399.48,207.114 399.48,206.265 396.784,204.752 396.705,202.297 399.819,199.854 403.193,197.993 403.703,196.892 
		407.084,195.547 408.522,195.295 408.353,194.28 406.241,194.025 403.114,193.857 401.169,194.953 399.225,195.463 397.625,194.28 
		395.686,193.348 394.248,192.588 394.248,191.913 396.784,191.403 397.961,190.649 397.961,189.716 385.806,189.388 
		384.111,192.252 378.798,192.507 376.688,191.151 374.32,191.319 360.559,197.066 360.559,198.842 359.374,199.77 356.922,199.77 
		355.916,199.515 354.145,200.784 354.4,202.973 356.41,202.973 358.775,202.889 361.742,205.175 362.748,210.149 364.348,213.783 
		361.904,218.087 358.27,223.077 358.27,229.911 360.89,231.433 363.179,233.708 364.782,232.87 372.284,223.497 377.867,221.718 
		384.371,219.193 390.194,218.344 	"/>
	<polygon points="396.363,222.987 394.671,223.747 393.399,223.747 392.385,222.063 391.119,222.144 389.939,223.324 
		390.273,225.352 391.211,225.778 391.211,226.955 393.741,227.717 397.711,227.885 400.163,226.28 400.673,223.999 
		399.564,222.486 	"/>
	<polygon points="405.897,243.756 403.957,244.608 402.441,247.138 401.845,248.825 402.531,249.251 401.845,250.683 
		402.531,250.683 403.282,250.436 403.879,250.938 404.641,251.022 406.653,248.491 407.591,246.213 408.611,244.014 
		407.668,243.756 	"/>
	<polygon points="412.069,244.524 411.982,246.547 410.035,247.892 409.192,249.845 409.78,250.599 409.78,251.448 407.846,252.036 
		407.668,253.045 410.379,252.459 413.748,251.957 416.457,251.19 417.637,249.587 417.718,248.323 415.861,248.066 
		414.844,246.127 413.924,243.848 412.831,241.991 412.655,240.806 414.092,240.041 413.496,238.861 412.145,238.275 
		412.655,237.597 412.655,236.922 410.035,237.09 408.853,239.371 408.853,242.069 410.797,244.182 	"/>
	<polygon points="426.589,269.174 427.853,269.174 428.2,268.667 428.2,267.064 427.598,265.545 426.416,266.896 426.589,268.59 	
		"/>
	<polygon points="426.849,273.654 427.514,273.483 428.019,272.306 427.682,272.043 428.105,270.787 428.019,270.101 
		426.849,270.361 426.164,270.95 426.085,271.878 426.416,273.233 	"/>
	<polygon points="434.354,277.288 435.626,278.378 437.15,278.215 437.305,276.439 436.464,275.509 435.119,275.509 
		432.586,275.682 432.749,276.187 	"/>
	<polygon points="450.659,281.332 451.576,281.923 453.1,281.172 452.85,280.572 449.897,280.662 448.37,280.071 448.37,280.662 
		449.642,281.082 	"/>
	<g>
		<g>
			<polygon points="464.501,281.332 465.35,280.241 465.095,279.311 462.562,280.071 461.624,281.508 462.22,282.267 
				463.072,282.181 			"/>
			<polygon points="477.674,214.04 480.622,213.948 480.622,213.273 478.436,212.771 477.928,212.096 477.164,209.145 
				474.04,209.313 473.375,212.855 476.835,213.446 			"/>
			<polygon points="479.111,207.03 479.61,207.03 481.134,205.845 482.572,205.845 485.533,203.656 485.606,201.454 484.85,201.37 
				481.975,204.074 480.456,204.074 478.262,203.903 477.256,205.091 476.488,206.265 475.395,206.439 475.146,208.386 
				477.75,208.302 			"/>
			<path d="M522.278,258.676c-0.116-0.381-0.208-0.765-0.321-1.14c-4.527-14.694-11.669-28.237-20.858-40.119
				c-0.914-1.185-1.829-2.365-2.783-3.511c-0.142-0.168-0.286-0.323-0.428-0.491c-0.954-1.143-1.921-2.265-2.914-3.374
				c-0.239-0.263-0.481-0.528-0.72-0.794l-1.803,0.142l-0.428,0.759l-2.52,2.538l0.076,1.598l1.093,0.258l1.351,1.86v1.096
				l-1.758,0.173l-2.212-1.353l-4.22,0.336l-4.22,1.185l-2.696,0.843l-3.384,1.353l-2.864,0.754l-0.762-0.079l-0.089-1.776
				l-1.86-1.177h-1.014v1.521l1.014,0.586v1.185l0.851,0.754v1.611l-1.356-0.089l-0.336-0.591l-1.521,1.359l-0.922,0.252
				l-2.875,2.956h-1.527l-2.276-2.365l-1.514-0.843l-1.267-1.012l0.081-1.695l1.947,0.594l1.858,0.675l2.013,1.009l1.784-0.084
				l0.686-0.849v-1.432l-0.686-0.334l-0.762-1.185h-1.098l-3.792-2.617l-4.396-1.69l-1.605-0.759l-2.693-1.269h-2.88l-6.511,4.393
				l-3.868,3.715l-2.961,2.951l-4.054,3.802l-2.029,1.939l-2.273,1.608v4.814l1.017,1.353l1.86-0.092l0.586-0.843l0.841-0.168
				l1.524-0.843v1.261l0.583-0.166v1.86l1.02,0.843l0.507,1.69l0.42,1.771l1.516-0.084l0.505-0.928l1.017-0.591l0.841-0.928v-1.012
				l0.938-2.281l1.348-2.273v-1.611l-0.849-2.113l1.359-2.867l1.684-1.101l0.084-1.185l1.437-1.771l1.527-1.603l1.172,0.507h0.841
				v2.113l-1.427,1.69l-1.855,1.766v1.359l2.186,4.304l2.029,0.084l1.519-0.759l1.261-0.42l1.519-0.084l0.591,0.163l0.683,1.098
				l-1.779,0.93h-1.524l-3.032,0.342l0.512,1.944v1.096l-1.277,0.507l-0.413-0.431l-1.106-0.079l-0.762,1.096l-0.922,2.281
				l-0.596,2.197l-0.841,0.168l-1.259-0.42l-2.036,0.084l-1.598,0.168l-1.944,0.675l-1.605,0.084l-2.273-0.258l-1.185-0.502v-1.605
				l0.841-0.933v-1.855l-0.42-1.519l-1.264,0.258l-1.359,0.92l0.173,1.527l0.168,2.872l-0.512,1.939l-2.273,0.675l-1.776,0.507
				l0.081,2.617l-0.596,0.084l-0.328-1.18l-0.93,0.586l-0.849,1.269l-1.259,0.594l-3.214,3.377h-1.605l-0.762-1.101l-1.351,0.089
				l0.599,0.757l-0.344,1.353h-3.027l0.158,1.188l0.596,0.499l1.692,0.849l1.852,1.18l0.168,2.867l-0.841,1.437l0.42,1.269
				l-1.692,0.928l-1.435-0.25l-2.877-0.678h-2.951l-1.934,0.594l-0.258,1.939v9.289l1.098,0.757l1.18,0.252l1.771,0.851l1.942-0.342
				l1.351-0.336l1.527,0.678l1.182,0.081l1.934-3.206l1.703-3.634l4.299-3.634l0.418-1.695l2.113-0.92l0.851,0.92l1.6-0.328
				l1.858-2.036l1.175-0.502l1.19,0.933l0.586,1.351l1.603,2.615l1.18,0.67l1.774,0.176l1.448,1.104l1.353,1.429l1.09,1.351
				l0.166,2.365h0.765l0.415-0.678l0.258-2.948h0.586l0.765,0.757h0.583l-0.583-1.261l-1.096-1.101l-1.944-1.267v-1.188
				l-1.603-0.589l-1.855-0.928l-0.252-0.928l-0.93-1.692l-0.841-0.841l0.336-1.356h0.928l0.51,0.849l0.925,1.009l1.603,0.67
				l2.617,2.454l1.863,1.188l1.432,1.937l1.098,2.536l0.93,1.432l1.432,0.762l-1.006,0.25v2.37l1.261,1.182l1.944-0.336v-3.216
				v-0.925l0.255-2.031l0.42-1.256l2.273-0.505l1.098,0.751h1.18l1.95-1.771l-0.678-1.261v-2.283l1.18-2.197l1.096-3.124
				l2.115-0.928l1.017-0.342l0.42,0.678l0.749,2.446l1.106,1.106h1.106l1.679-1.014v-1.104l-1.017-1.009l3.558-1.776l0.754-0.339
				l1.017,0.258v0.751l-0.849,0.51l-1.177,1.188l-0.252,1.345l0.752,0.846l1.768,1.012l0.941,0.849l1.259,1.012h1.017l0.928,0.841
				l-0.418,0.841l0.089,1.692l-2.709,0.089l-1.6-0.258l-1.437-0.334l-2.031-0.339l-1.353-0.849h-2.186l-1.02,0.93l-1.02,0.673
				l-0.836,0.765l-1.937,0.342h-1.198l-0.754,0.505l-0.925,0.922h-1.524l0.762,2.791l0.762,2.791l1.169,1.177l2.875-0.087
				l2.696-0.339l2.368,0.089l3.303-0.258v0.765l-0.594,0.42v2.026v1.432l-0.754,2.533l-0.602,1.779l-0.928,1.6l-0.765-0.507
				l-1.521-0.166l-1.172-0.081l-2.541,0.504l-1.516,0.838h-2.278l-2.541-1.6l-1.855-1.348l-1.429-1.101l-2.62,0.591l-1.779,1.009
				l-0.079,1.524h0.591l-0.163,1.188h-1.267l-3.303-0.599l-2.11-1.177l-0.591-2.105l-0.836-0.258l-2.798-0.342l-1.855-0.678
				l-1.6-1.429l-0.334-1.017l0.93-2.446l0.163-2.034l-3.786-0.25h-3.308l-2.265,0.591l-2.289,0.502l-3.886,0.851l-4.725,1.768
				l-1.944,0.087l-1.603-0.849h-1.093l-1.692,2.704l-1.02,1.356l-2.785,1.937l-0.586,1.437l-0.51,2.788l-3.384,4.052h-1.424
				l-2.197,2.53l-4.133,8.277l-0.431,3.463l0.092,4.386l-1.106,4.141v4.054l1.7,3.716l5.061,6.251l7.008,7.515l3.119,0.586
				l8.025-2.533l6.419-1.692l2.875-0.339l2.777,3.978h2.622l2.36,0.334l-0.163,2.105l-1.017,2.875l-0.754,3.382l4.304,6.498
				l2.368,4.985l1.348,8.272l-3.04,5.907l-0.089,6.845l3.306,7.339l0.586,3.13l0.93,6.411l3.968,7.089l0.342,4.317l2.362,1.69
				l0.502,0.922l1.18,0.173l1.944-1.6l4.133-1.02l3.208-0.415l3.127-2.462l4.044-4.633l2.875-5.489v-1.348l3.886-2.546l0.079-4.223
				l-0.838-4.044l3.127-2.625l3.716-3.122l3.458-3.716l-0.163-3.132l-1.86-11.475l0.334-5.986l3.978-4.903l5.145-5.321l4.307-5.739
				l4.977-12.161l-0.155-1.353l-2.796,0.42l-5.316,1.776l-3.292,0.836l-1.437-0.163l0.087-3.542l-2.278-2.454l-2.457-2.533
				l-1.001-0.594l-0.849-3.792l-3.553-3.639l-0.079-2.953l-2.704-4.307l-3.208-6.164l-0.928-2.704l-0.428-1.605l1.697,0.089
				l0.074,0.502l0.507,0.166l0.841-0.93l1.779,4.648l6.409,10.137l4.317,5.826l0.752,5.4l0.759,1.527l1.782,2.867l1.766-0.415
				l5.92-1.356l2.107-1.435l2.194-2.197l3.045-2.026l1.684-1.017l2.362-2.197l2.286-2.948l1.603-4.903l-0.596-1.006l-0.93-0.518
				l-1.776-0.334l-1.351-0.594l-0.334-1.345l0.079-2.115h-1.603l-1.093,1.774l-0.928,1.264l-2.283-0.25l-1.185-0.258v-2.283
				l-0.754-0.757l-1.264,0.678l-0.849-0.255l-0.252-1.269l-1.006-0.418l-1.022-1.947l-2.031-1.776l-0.25-0.841l1.014-1.185
				l1.858-0.163l1.6,1.684l2.956,2.791l1.264,1.261h2.709l1.006-0.928l1.858-0.255l1.269,0.928v1.692l2.194,0.841l1.866,0.594
				l10.214,0.087l1.942,1.855l0.841,1.437l0.849,1.524l2.523,2.615l1.524,0.846l0.938-0.339l0.242-2.449h1.443l0.336,5.316
				l0.021,0.084c0.57-4.877,0.891-9.827,0.891-14.857C527.56,282.328,525.699,270.167,522.278,258.676z"/>
		</g>
		<path d="M491.513,367.971l-0.665,0.176l-3.211,3.458l-1.267,2.021l-1.435,1.098l-2.454,1.858l-0.922,3.469l0.586,0.252
			l-0.081,2.273l-2.026,4.475l0.168,2.875l1.301,2.825c2.152-1.784,4.228-3.663,6.262-5.584l0.712-2.641l3.208-8.779l-0.079-5.242
			L491.513,367.971z"/>
	</g>
</g>
<path d="M400.917,431.25c-72.324,0-131.167-58.844-131.167-131.172c0-72.321,58.844-131.165,131.167-131.165
	s131.17,58.844,131.17,131.165C532.087,372.406,473.243,431.25,400.917,431.25z M400.917,177.471
	c-67.609,0-122.614,55.002-122.614,122.606c0,67.615,55.005,122.617,122.614,122.617c67.607,0,122.614-55.002,122.614-122.617
	C523.531,232.473,468.524,177.471,400.917,177.471z"/>
</svg>
