<?xml version="1.0" encoding="utf-8"?>
<!-- Generator: Adobe Illustrator 18.1.1, SVG Export Plug-In . SVG Version: 6.00 Build 0)  -->
<svg version="1.1" id="Layer_1" xmlns="http://www.w3.org/2000/svg" xmlns:xlink="http://www.w3.org/1999/xlink" x="0px" y="0px"
	 viewBox="-48.5 104.8 903 353.1" enable-background="new -48.5 104.8 903 353.1" xml:space="preserve">
<g id="Layer_1_1_">
	<path fill="#22629A" d="M375.8,311.4l-39.7-0.1l-8.3,29.2l-11.7,0L353,215.2l5.9,0l36.7,125.4l-11.6,0L375.8,311.4z M339.2,300.6
		l33.7,0.1l-16.4-57.8l-0.3-4.6l-0.4,4.6L339.2,300.6z"/>
	<path fill="#22629A" d="M437,226.1l-0.2,114.6l-11.3,0l0.2-114.6l-29.9-0.1l0-10.8l71.1,0.1l0,10.8L437,226.1z"/>
	<path fill="#22629A" d="M526.4,311.6l-39.7-0.1l-8.3,29.2l-11.7,0l36.9-125.3l5.9,0l36.7,125.4l-11.6,0L526.4,311.6z M489.8,300.8
		l33.7,0.1L507,243.1l-0.3-4.6l-0.4,4.6L489.8,300.8z"/>
	<path fill="#22629A" d="M563.1,340.9l0-13.5l13.5,0l0,13.5L563.1,340.9z"/>
	<path fill="#22629A" d="M662.7,341.1l-3.6,0l-6.5-10.1c-2.7,3.6-6.1,6.5-10,8.6c-3.9,2.1-8.2,3.2-13,3.2l-6.6,0
		c-4.3,0-8.3-0.8-12-2.4c-3.8-1.6-7-3.8-9.8-6.6c-2.8-2.8-5-6.1-6.6-9.8c-1.6-3.7-2.4-7.7-2.4-12l0.1-67.3c0-4.3,0.8-8.2,2.4-12
		c1.6-3.7,3.8-7,6.6-9.8c2.8-2.8,6.1-5,9.8-6.6s7.8-2.4,12-2.4l8.9,0c4.3,0,8.2,0.8,12,2.4c3.7,1.6,7,3.8,9.8,6.6
		c2.8,2.8,5,6.1,6.6,9.8c1.6,3.7,2.4,7.7,2.4,12l0,5.1l-11.3,1.7l0-6.8c0-2.8-0.5-5.4-1.6-7.8c-1-2.4-2.5-4.5-4.3-6.3
		c-1.8-1.8-3.9-3.2-6.3-4.3c-2.4-1.1-5-1.6-7.8-1.6l-7.9,0c-2.8,0-5.4,0.5-7.8,1.6c-2.4,1-4.5,2.5-6.4,4.3c-1.8,1.8-3.3,3.9-4.3,6.3
		s-1.6,5-1.6,7.8l-0.1,67.3c0,2.8,0.5,5.4,1.6,7.8c1,2.4,2.5,4.5,4.3,6.4c1.8,1.8,4,3.3,6.4,4.3c2.4,1.1,5,1.6,7.8,1.6l7.9,0
		c2.8,0,5.4-0.5,7.8-1.6c2.4-1,4.5-2.5,6.3-4.3c1.8-1.8,3.2-4,4.3-6.4c1.1-2.4,1.6-5,1.6-7.8l0-26.1l-20,0l0-10.8l31.3,0.1
		L662.7,341.1z"/>
	<path fill="#22629A" d="M750,324.2c-1.6,3.7-3.8,7-6.6,9.8c-2.8,2.8-6.1,5-9.8,6.6c-3.7,1.6-7.7,2.4-12,2.4l-8.9,0
		c-4.3,0-8.3-0.8-12-2.4c-3.8-1.6-7-3.8-9.8-6.6c-2.8-2.8-5-6.1-6.6-9.8c-1.6-3.7-2.4-7.7-2.4-12l0.1-67.3c0-4.3,0.8-8.2,2.4-12
		c1.6-3.7,3.8-7,6.6-9.8c2.8-2.8,6.1-5,9.8-6.6c3.8-1.6,7.8-2.4,12-2.4l8.9,0c4.3,0,8.2,0.8,12,2.4c3.7,1.6,7,3.8,9.8,6.6
		s5,6.1,6.6,9.8c1.6,3.7,2.4,7.7,2.4,12l-0.1,67.3C752.4,316.5,751.6,320.5,750,324.2z M741.3,244.9c0-2.8-0.5-5.4-1.6-7.8
		c-1-2.4-2.5-4.5-4.3-6.3c-1.8-1.8-3.9-3.2-6.3-4.3c-2.4-1.1-5-1.6-7.8-1.6l-7.9,0c-2.8,0-5.4,0.5-7.8,1.6c-2.4,1-4.6,2.5-6.4,4.3
		c-1.8,1.8-3.3,3.9-4.3,6.3c-1.1,2.4-1.6,5-1.6,7.8l-0.1,67.3c0,2.8,0.5,5.4,1.6,7.8c1,2.4,2.5,4.6,4.3,6.4c1.8,1.8,4,3.3,6.4,4.3
		c2.4,1.1,5,1.6,7.8,1.6l7.9,0c2.8,0,5.4-0.5,7.8-1.6c2.4-1,4.5-2.5,6.3-4.3c1.8-1.8,3.2-4,4.3-6.4c1.1-2.4,1.6-5,1.6-7.8
		L741.3,244.9z"/>
	<path fill="#22629A" d="M803.6,313.8l0.3,4.6l0.4-4.6l28-97.8l11.6,0l-37.1,125.3l-5.9,0l-36.5-125.4l11.7,0L803.6,313.8z"/>
</g>
<g id="Old_D" display="none">
	<path display="inline" d="M89.6,226.9c2.8,0,5.4,0.5,7.8,1.6c2.4,1.1,4.5,2.5,6.4,4.3c1.8,1.8,3.3,4,4.3,6.4c1,2.4,1.6,5,1.6,7.8
		l-0.1,63.7c0,2.8-0.5,5.4-1.6,7.8c-1.1,2.4-2.5,4.5-4.3,6.3c-1.8,1.8-4,3.2-6.4,4.3c-2.4,1-5,1.6-7.8,1.6l-17.7,0l0,0l-21.4,0
		l0,10.7l39.7,0.1c4.3,0,8.3-0.8,12-2.4s7-3.8,9.8-6.6c2.8-2.8,5-6,6.6-9.8c1.6-3.7,2.4-7.7,2.4-12L121,247c0-4.3-0.8-8.3-2.4-12
		c-1.6-3.8-3.8-7-6.6-9.8c-2.8-2.8-6.1-5-9.8-6.6c-3.8-1.6-7.8-2.4-12-2.4L50.5,216l0,10.8L89.6,226.9z"/>
	<rect x="50.3" y="216" display="inline" width="10.8" height="45.3"/>
	<rect x="33" y="272.2" display="inline" width="45.3" height="10.8"/>
	<rect x="50.3" y="293.8" display="inline" width="10.8" height="47.6"/>
</g>
<g id="New_D">
	<g id="Layer_9">
		<g>
			<path fill="#22629A" d="M245.2,329.8H273c2.8,0,5.4-0.5,7.8-1.6c2.4-1,4.5-2.5,6.4-4.3c1.8-1.8,3.3-3.9,4.3-6.3
				c1-2.4,1.6-5,1.6-7.8V246c0-2.8-0.5-5.4-1.6-7.8c-1-2.4-2.5-4.5-4.3-6.4c-1.8-1.8-4-3.3-6.4-4.3c-2.4-1-5-1.6-7.8-1.6h-27.9
				l-11.3,0v-10.7h39.7c4.3,0,8.3,0.8,12,2.4c3.8,1.6,7,3.8,9.8,6.6c2.8,2.8,5,6.1,6.6,9.8c1.6,3.8,2.4,7.8,2.4,12v63.7
				c0,4.3-0.8,8.2-2.4,12c-1.6,3.7-3.8,7-6.6,9.8c-2.8,2.8-6.1,5-9.8,6.6c-3.8,1.6-7.8,2.4-12,2.4h-39.7v-10.7"/>
		</g>
	</g>
	<g id="New_bar">
		<rect x="233.9" y="294.8" fill="#22629A" width="11.3" height="45.7"/>
	</g>
	<g id="New_bar_copy_2">
		<rect x="233.9" y="215.2" fill="#22629A" width="11.3" height="45.7"/>
	</g>
	<g id="Bar">
		<rect x="216.7" y="272.2" fill="#22629A" width="45.7" height="11.3"/>
	</g>
	<g display="none">
		<path display="inline" fill="#22629A" d="M302,321.7c-1.6,3.7-3.8,7-6.6,9.8c-2.8,2.8-6.1,5-9.8,6.6c-3.8,1.6-7.8,2.4-12,2.4
			h-39.7v-10.7V225.9v-10.7h39.7c4.3,0,8.3,0.8,12,2.4c3.8,1.6,7,3.8,9.8,6.6c2.8,2.8,5,6.1,6.6,9.8c1.6,3.8,2.4,7.8,2.4,12v63.7
			C304.4,314,303.6,318,302,321.7z M293.1,246c0-2.8-0.5-5.4-1.6-7.8c-1-2.4-2.5-4.5-4.3-6.4c-1.8-1.8-4-3.3-6.4-4.3
			c-2.4-1-5-1.6-7.8-1.6h-27.9v103.8H273c2.8,0,5.4-0.5,7.8-1.6c2.4-1,4.5-2.5,6.4-4.3c1.8-1.8,3.3-3.9,4.3-6.3c1-2.4,1.6-5,1.6-7.8
			V246z"/>
	</g>
</g>
<g id="Guides">
</g>
<g>
	<g>
		<g>
			<rect id="stripe_63_" x="-35.4" y="271.9" fill="#E54520" width="218.5" height="10.3"/>
		</g>
		<g>
			<rect id="stripe_62_" x="-35.4" y="215.2" fill="#E54520" width="218.5" height="9.5"/>
		</g>
		<g>
			<rect id="stripe_61_" x="-35.4" y="234.2" fill="#E54520" width="218.5" height="9.5"/>
		</g>
		<g>
			<rect id="stripe_60_" x="-35.4" y="253.3" fill="#E54520" width="218.5" height="9.5"/>
		</g>
		<g>
			<rect id="stripe_59_" x="-35.4" y="291.3" fill="#E54520" width="218.5" height="9.5"/>
		</g>
		<g>
			<rect id="stripe_58_" x="-35.4" y="310.3" fill="#E54520" width="218.5" height="9.5"/>
		</g>
		<g>
			<rect id="stripe_57_" x="-35.4" y="329.3" fill="#E54520" width="218.5" height="9.5"/>
		</g>
		<rect x="-35.4" y="215.2" fill="#22629A" width="101.7" height="67"/>
	</g>
</g>
</svg>
